<svg width="156" height="52" viewBox="0 0 156 52" fill="none" xmlns="http://www.w3.org/2000/svg">
<rect x="0.5" y="0.5" width="155" height="51" rx="7.5" stroke="#212121"/>
<path d="M49.592 26.416C49.592 25.328 49.8427 24.352 50.344 23.488C50.856 22.624 51.544 21.952 52.408 21.472C53.2827 20.9813 54.2373 20.736 55.272 20.736C56.456 20.736 57.5067 21.0293 58.424 21.616C59.352 22.192 60.024 23.0133 60.44 24.08H58.248C57.96 23.4933 57.56 23.056 57.048 22.768C56.536 22.48 55.944 22.336 55.272 22.336C54.536 22.336 53.88 22.5013 53.304 22.832C52.728 23.1627 52.2747 23.6373 51.944 24.256C51.624 24.8747 51.464 25.5947 51.464 26.416C51.464 27.2373 51.624 27.9573 51.944 28.576C52.2747 29.1947 52.728 29.6747 53.304 30.016C53.88 30.3467 54.536 30.512 55.272 30.512C55.944 30.512 56.536 30.368 57.048 30.08C57.56 29.792 57.96 29.3547 58.248 28.768H60.44C60.024 29.8347 59.352 30.656 58.424 31.232C57.5067 31.808 56.456 32.096 55.272 32.096C54.2267 32.096 53.272 31.856 52.408 31.376C51.544 30.8853 50.856 30.208 50.344 29.344C49.8427 28.48 49.592 27.504 49.592 26.416ZM61.967 27.552C61.967 26.6667 62.1483 25.8827 62.511 25.2C62.8843 24.5173 63.3857 23.9893 64.015 23.616C64.655 23.232 65.359 23.04 66.127 23.04C66.8203 23.04 67.423 23.1787 67.935 23.456C68.4577 23.7227 68.8737 24.0587 69.183 24.464V23.184H71.023V32H69.183V30.688C68.8737 31.104 68.4523 31.4507 67.919 31.728C67.3857 32.0053 66.7777 32.144 66.095 32.144C65.3377 32.144 64.6443 31.952 64.015 31.568C63.3857 31.1733 62.8843 30.6293 62.511 29.936C62.1483 29.232 61.967 28.4373 61.967 27.552ZM69.183 27.584C69.183 26.976 69.055 26.448 68.799 26C68.5537 25.552 68.2283 25.2107 67.823 24.976C67.4177 24.7413 66.9803 24.624 66.511 24.624C66.0417 24.624 65.6043 24.7413 65.199 24.976C64.7937 25.2 64.463 25.536 64.207 25.984C63.9617 26.4213 63.839 26.944 63.839 27.552C63.839 28.16 63.9617 28.6933 64.207 29.152C64.463 29.6107 64.7937 29.9627 65.199 30.208C65.615 30.4427 66.0523 30.56 66.511 30.56C66.9803 30.56 67.4177 30.4427 67.823 30.208C68.2283 29.9733 68.5537 29.632 68.799 29.184C69.055 28.7253 69.183 28.192 69.183 27.584ZM77.8668 23.04C78.5601 23.04 79.1788 23.184 79.7228 23.472C80.2774 23.76 80.7094 24.1867 81.0188 24.752C81.3281 25.3173 81.4828 26 81.4828 26.8V32H79.6748V27.072C79.6748 26.2827 79.4774 25.68 79.0828 25.264C78.6881 24.8373 78.1494 24.624 77.4668 24.624C76.7841 24.624 76.2401 24.8373 75.8348 25.264C75.4401 25.68 75.2428 26.2827 75.2428 27.072V32H73.4188V23.184H75.2428V24.192C75.5414 23.8293 75.9201 23.5467 76.3788 23.344C76.8481 23.1413 77.3441 23.04 77.8668 23.04ZM83.2014 27.584C83.2014 26.6773 83.3827 25.8827 83.7454 25.2C84.1187 24.5067 84.6307 23.9733 85.2814 23.6C85.932 23.2267 86.6787 23.04 87.5214 23.04C88.588 23.04 89.468 23.296 90.1614 23.808C90.8654 24.3093 91.34 25.0293 91.5854 25.968H89.6174C89.4574 25.5307 89.2014 25.1893 88.8494 24.944C88.4974 24.6987 88.0547 24.576 87.5214 24.576C86.7747 24.576 86.1774 24.8427 85.7294 25.376C85.292 25.8987 85.0734 26.6347 85.0734 27.584C85.0734 28.5333 85.292 29.2747 85.7294 29.808C86.1774 30.3413 86.7747 30.608 87.5214 30.608C88.5774 30.608 89.276 30.144 89.6174 29.216H91.5854C91.3294 30.112 90.8494 30.8267 90.1454 31.36C89.4414 31.8827 88.5667 32.144 87.5214 32.144C86.6787 32.144 85.932 31.9573 85.2814 31.584C84.6307 31.2 84.1187 30.6667 83.7454 29.984C83.3827 29.2907 83.2014 28.4907 83.2014 27.584ZM101.483 27.376C101.483 27.7067 101.462 28.0053 101.419 28.272H94.6831C94.7365 28.976 94.9978 29.5413 95.4671 29.968C95.9365 30.3947 96.5125 30.608 97.1951 30.608C98.1765 30.608 98.8698 30.1973 99.2751 29.376H101.243C100.976 30.1867 100.491 30.8533 99.7871 31.376C99.0938 31.888 98.2298 32.144 97.1951 32.144C96.3525 32.144 95.5951 31.9573 94.9231 31.584C94.2618 31.2 93.7391 30.6667 93.3551 29.984C92.9818 29.2907 92.7951 28.4907 92.7951 27.584C92.7951 26.6773 92.9765 25.8827 93.3391 25.2C93.7125 24.5067 94.2298 23.9733 94.8911 23.6C95.5631 23.2267 96.3311 23.04 97.1951 23.04C98.0271 23.04 98.7685 23.2213 99.4191 23.584C100.07 23.9467 100.576 24.4587 100.939 25.12C101.302 25.7707 101.483 26.5227 101.483 27.376ZM99.5791 26.8C99.5685 26.128 99.3285 25.5893 98.8591 25.184C98.3898 24.7787 97.8085 24.576 97.1151 24.576C96.4858 24.576 95.9471 24.7787 95.4991 25.184C95.0511 25.5787 94.7845 26.1173 94.6991 26.8H99.5791ZM105.102 20.16V32H103.278V20.16H105.102Z" fill="#212121"/>
</svg>
